<?xml version="1.0" encoding="UTF-8"?>
<svg id="Layer_1" data-name="Layer 1" xmlns="http://www.w3.org/2000/svg" viewBox="0 0 196.39 351.2">
  <defs>
    <style>
      .cls-1 {
        fill: #0b243f;
        stroke-width: 0px;
      }
    </style>
  </defs>
  <path class="cls-1" d="M29.26,282.39c20.7-10.55,41.52-20.86,62.06-31.73,18.86-9.98,36.42-21.93,51.83-36.82,10.77-10.41,20.15-22.05,26.3-35.68,14.77-32.73,12.53-64.46-10.09-92.75-10.46-13.08-23.96-23.78-36.39-35.22-3.77-3.47-5.44-6.82-2.66-11.22,2.21-3.49,5.9-5.57,9.6-2.83,27.76,20.56,52.96,43.47,61.35,78.83,6.56,27.62,2.34,53.85-12.39,78.64-17.84,30.03-44.11,50.53-73.78,67.13-19.82,11.09-40.48,20.68-60.76,30.97-.44.22-.72.75-1.3,1.4,9.45,2.5,18.58,5.05,27.78,7.3,5.84,1.43,9.53,4.96,8.94,9.19-.68,4.89-5.5,7.81-11.91,6.36-10.25-2.31-20.31-5.52-30.59-7.65-8.25-1.71-16.68-2.62-25.08-3.47-8.83-.89-12.95-7.92-7.82-15.01,9.54-13.19,14.44-28.41,20.31-43.25.96-2.43,1.77-4.99,3.11-7.21,2.33-3.84,6.15-4.53,9.86-2.73,3.69,1.79,5.49,5.12,3.87,9.41-4.37,11.58-8.8,23.13-13.21,34.7.32.55.64,1.1.96,1.64Z"/>
</svg>