<?xml version="1.0" encoding="UTF-8"?>
<svg id="Layer_1" data-name="Layer 1" xmlns="http://www.w3.org/2000/svg" xmlns:xlink="http://www.w3.org/1999/xlink" viewBox="0 0 769.01 656.55">
  <defs>
    <style>
      .cls-1 {
        fill: url(#radial-gradient);
        stroke-width: 0px;
      }
    </style>
    <radialGradient id="radial-gradient" cx="384.51" cy="328.27" fx="384.51" fy="328.27" r="357.5" gradientUnits="userSpaceOnUse">
      <stop offset="0" stop-color="#00a76a"/>
      <stop offset="1" stop-color="#075853"/>
    </radialGradient>
  </defs>
  <path class="cls-1" d="M703.48,81.42C636.49,26.97,560.06,1.85,471.53,0c-12.51,1-28.33,1.49-43.92,3.65-49.64,6.88-95.12,22.76-128.72,62.69-20.03,23.8-34.96,51.12-52.49,76.66-18.99,27.67-42.91,48.62-75.74,58.75-20.17,6.23-41.02,9.77-60.86,17.42C28.49,250.54-19.55,324.27,7.64,412.45c11.94,38.72,33.78,68.97,74.82,81.8,38.22,11.95,77.88,14.32,117.18,19.34,55.77,7.12,105.12,23.44,143.08,70.65,48.3,60.08,113.09,83.76,190.49,67.13,71.65-15.39,148.99-78.7,145.25-169.73-1.88-45.8,7.26-91.12,34.26-130.5,5.22-7.61,10.17-15.54,16.37-22.3,63.57-69.36,48.48-187.2-25.6-247.41Z"/>
</svg>