<?xml version="1.0" encoding="utf-8"?>
<!-- Generator: Adobe Illustrator 28.2.0, SVG Export Plug-In . SVG Version: 6.00 Build 0)  -->
<svg version="1.1" id="Layer_1" xmlns="http://www.w3.org/2000/svg" xmlns:xlink="http://www.w3.org/1999/xlink" x="0px" y="0px"
	 viewBox="0 0 800 800" style="enable-background:new 0 0 800 800;" xml:space="preserve">
<style type="text/css">
	.st0{fill:#0A2540;}
	.st1{fill:#00A86B;}
	.st2{fill:#FFFFFF;}
	.st3{fill:url(#SVGID_1_);}
	.st4{fill:url(#SVGID_00000070834439375253306760000008667915890199334296_);}
	.st5{fill:url(#SVGID_00000134937786282371039100000003504103663859231361_);}
	.st6{fill:url(#SVGID_00000050648859835973534480000010947715717743061910_);}
	.st7{fill:url(#SVGID_00000119813625779300652570000007813852318787540904_);}
	.st8{fill:url(#SVGID_00000074415448134580253060000000143159759417399194_);}
	.st9{fill:url(#SVGID_00000026151997921321213750000004460656466762727357_);}
	.st10{fill:url(#SVGID_00000001634571818965503760000005198058951901429674_);}
	.st11{fill:url(#SVGID_00000079467098123419153530000009963950102209633158_);}
	.st12{fill:url(#SVGID_00000056410844209051894440000010280203121177851823_);}
	.st13{fill:url(#SVGID_00000071545195339420046040000009321650649614560689_);}
	.st14{fill:url(#SVGID_00000085238285176552742050000011419993441114767519_);}
	.st15{font-family:'Poppins-Black';}
	.st16{font-size:153.9354px;}
	.st17{font-family:'Montserrat-Medium';}
	.st18{font-size:85.709px;}
</style>
<g>
	<g>
		<rect x="551.99" y="18.02" class="st0" width="108.82" height="501.33"/>
		<rect x="296.44" y="139.71" class="st0" width="73.25" height="379.64"/>
		<linearGradient id="SVGID_1_" gradientUnits="userSpaceOnUse" x1="418.2483" y1="151.9611" x2="418.2483" y2="567.1567">
			<stop  offset="0" style="stop-color:#00A86B"/>
			<stop  offset="1" style="stop-color:#0A2540"/>
		</linearGradient>
		<polygon class="st3" points="454.88,260.09 454.88,519.37 381.62,519.37 381.62,156.53 406.04,191.05 		"/>
		
			<linearGradient id="SVGID_00000057136368658796228560000005854430709910368169_" gradientUnits="userSpaceOnUse" x1="503.4315" y1="151.9611" x2="503.4315" y2="567.1567">
			<stop  offset="0" style="stop-color:#00A86B"/>
			<stop  offset="1" style="stop-color:#0A2540"/>
		</linearGradient>
		<polygon style="fill:url(#SVGID_00000057136368658796228560000005854430709910368169_);" points="540.06,380.44 540.06,519.37 
			466.8,519.37 466.8,276.92 		"/>
		<path class="st1" d="M719.41,152.22c93.3,28.49,31.39,130.82-15.96,174.02c-65.32,61.05-147.28,98.63-228.49,132.75
			c-95.08,39.12-198.68,72.65-302.84,56.23c-52.25-7.67-116.15-31.74-127.98-89.55c24.44,48.44,81.77,58.5,130.83,59.54
			c59.95,1.6,119.36-12.07,175.99-30.96c35.74-11.87,70.54-25.74,105.4-40.23c96.75-42.15,219.27-84.95,279.91-172.7
			C760.73,204.89,757.99,176.71,719.41,152.22L719.41,152.22z"/>
		<g>
			
				<linearGradient id="SVGID_00000182506557667033942860000014480292183419676055_" gradientUnits="userSpaceOnUse" x1="414.3947" y1="165.2864" x2="414.3947" y2="121.6827">
				<stop  offset="0" style="stop-color:#00A86B"/>
				<stop  offset="1" style="stop-color:#0A2540"/>
			</linearGradient>
			<path style="fill:url(#SVGID_00000182506557667033942860000014480292183419676055_);" d="M399.26,146.35l13.75,19.43
				c5.48-13.67,10.99-27.42,16.51-41.17c-6.49-1.3-12.25-2.43-19.02-3.77C406.77,129.31,403,137.83,399.26,146.35z"/>
			
				<linearGradient id="SVGID_00000031198934149272621670000000050109296859401645_" gradientUnits="userSpaceOnUse" x1="281.925" y1="460.1399" x2="281.925" y2="23.3986">
				<stop  offset="0" style="stop-color:#00A86B"/>
				<stop  offset="1" style="stop-color:#0A2540"/>
			</linearGradient>
			<path style="fill:url(#SVGID_00000031198934149272621670000000050109296859401645_);" d="M129.76,88.18
				C44,164.43,14.39,279.51,42.35,382.24c11.54,42.41,47.32,74.06,90.98,79.13c2.78,0.32,4.38,0.41,4.38,0.41
				c-12.25-14.89-22.51-30.91-30.5-47.62c15.66,18.98,32.78,35.74,51.52,50.01c5.31,0.41,10.91,0.65,16.67,0.77
				c4.55,0.12,8.93,0.15,13.26,0.1c0-0.01,0,0,0-0.01c-48.88-35.05-83.93-83.32-106.28-143.76c-0.61-1.62-0.73-3.77-0.2-5.39
				c10.59-32.78,24.38-64.13,42.59-93.5c0.24-0.37,0.61-0.65,1.38-1.54c27.42,79.22,77.44,137.19,150,174.46v-21.74
				c-1.22-0.69-2.39-1.42-3.57-2.19c-30.02-19.19-55.61-43.2-77.23-71.51c-3.08-4.02-3.45-6.86-0.77-11.44
				c17.4-29.73,37.97-57.15,61.09-82.63c0.73-0.81,1.38-1.66,2.27-2.72c-3.77-5.03-7.5-9.94-11.56-15.25
				c-25.11,28.31-46.4,58.74-64.13,93.01c-3.93-6.81-7.59-12.74-10.83-18.86c-11.03-20.57-19.55-42.15-25.47-64.7
				c-0.49-1.83-0.32-4.62,0.73-6c21.13-26.97,45.84-50.18,74.27-69.4c0.36-0.24,0.81-0.37,1.74-0.77
				c12.33,34.24,30.14,63.6,53.46,87.98v-52.41c-3.2,3.08-6.41,6.21-9.57,9.37c-3.93-7.02-7.87-13.18-10.91-19.79
				c-4.95-10.75-9.21-21.82-13.91-32.69c-1.26-3-0.77-4.5,2.27-6.21c30.3-17,62.39-29.33,95.93-38.09c1.46-0.41,2.92-0.89,4.62-1.38
				c-0.24-0.85-0.36-1.42-0.61-1.95c-4.99-10.42-5.52-10.67-16.51-7.59c-29.81,8.4-58.82,18.86-86.52,32.86
				c-1.38,0.69-2.84,1.26-4.62,2.03c-0.41-1.14-0.89-2.07-1.05-3.04c-1.62-9.53-3.12-19.11-4.79-28.64
				c-0.41-2.51,0.2-3.85,2.72-4.99c30.99-13.51,63.32-21.01,97.11-22.35c2.92-0.08,4.06,1.1,5.27,3.37
				c31.23,57.88,79.59,90.78,144.93,97.8c13.22,1.38,26.77-0.37,40.2-0.69c0.97-0.04,1.91-0.45,2.88-1.01
				c-43.32,1.87-82.83-9.17-118.04-34.56C382.27,82.3,364.1,61,350.39,34.43c42.35,1.87,81.33,12.66,117.31,33.26
				c24.54,14.12,45.96,30.75,64.01,50.1v-14.72C423.97-7.83,246.5-15.62,129.76,88.18z M112.32,209.14
				C94.33,239.5,84.37,272.9,79.3,307.79c-0.11-0.01,0.07,0-0.04,0c-2.88-50.91,8.48-98.49,34.4-144c1.1,6.69,1.38,12.29,3,17.44
				C119.86,191.45,117.84,199.85,112.32,209.14z M214.38,105.62c-20.28,12.7-39.43,26.89-56.5,43.73
				c-5.96,5.88-11.6,12.13-18.17,19.02c-0.49-3.37-1.01-6-1.3-8.68c-0.73-6.98-1.1-13.99-2.11-20.93
				c-0.77-5.23,0.81-9.13,4.26-13.06c19.39-22.11,41.46-40.93,66.89-55.77c1.05-0.61,2.15-1.1,3.2-1.62
				c2.23,11.48,4.5,22.59,6.41,33.79C217.26,103.11,215.59,104.89,214.38,105.62z"/>
			
				<linearGradient id="SVGID_00000179605313012069106040000006712509453922056619_" gradientUnits="userSpaceOnUse" x1="348.0936" y1="119.0734" x2="348.0936" y2="88.8891">
				<stop  offset="0" style="stop-color:#00A86B"/>
				<stop  offset="1" style="stop-color:#0A2540"/>
			</linearGradient>
			<path style="fill:url(#SVGID_00000179605313012069106040000006712509453922056619_);" d="M318.42,119.41h36.91
				c1.99-1.46,3.98-2.88,6-4.22c3.66-2.54,7.36-5.02,11.07-7.48c1.76-1.22,3.56-2.37,5.36-3.55c-5.96-5.4-11.6-10.42-17.65-15.86
				C345.84,98.12,331.93,108.46,318.42,119.41z"/>
			
				<linearGradient id="SVGID_00000056402289075739376570000003421990696314473878_" gradientUnits="userSpaceOnUse" x1="160.737" y1="417.1165" x2="160.737" y2="318.843">
				<stop  offset="0" style="stop-color:#00A86B"/>
				<stop  offset="1" style="stop-color:#0A2540"/>
			</linearGradient>
			<path style="fill:url(#SVGID_00000056402289075739376570000003421990696314473878_);" d="M147.29,418.22
				c5.52-30.64,14.5-60.19,26.61-88.82c0.41-0.96,0.39-2.59-0.17-3.38c-2.08-2.95-4.47-5.69-7.23-9.1
				C154.16,350.23,147.4,383.59,147.29,418.22z"/>
		</g>
	</g>
	<g>
		<text transform="matrix(1 0 0 1 31.7124 676.7588)" class="st15 st16">NUMERIQ</text>
		<g>
			<text transform="matrix(1 0 0 1 31.7124 676.7588)" class="st0 st15 st16">NUMERIQ</text>
		</g>
	</g>
	<g>
		<text transform="matrix(1 0 0 1 152.7778 774.5742)" class="st17 st18">G L O B A L</text>
		<g>
			<text transform="matrix(1 0 0 1 152.7778 774.5742)" class="st0 st17 st18">G L O B A L</text>
		</g>
	</g>
</g>
</svg>
