<?xml version="1.0" encoding="utf-8"?>
<!-- Generator: Adobe Illustrator 28.2.0, SVG Export Plug-In . SVG Version: 6.00 Build 0)  -->
<svg version="1.1" id="Layer_1" xmlns="http://www.w3.org/2000/svg" xmlns:xlink="http://www.w3.org/1999/xlink" x="0px" y="0px"
	 viewBox="0 0 800 800" style="enable-background:new 0 0 800 800;" xml:space="preserve">
<style type="text/css">
	.st0{fill:#0A2540;}
	.st1{fill:#00A86B;}
	.st2{fill:#FFFFFF;}
	.st3{fill:url(#SVGID_1_);}
	.st4{fill:url(#SVGID_00000080899129186015979020000005091328325525054655_);}
	.st5{fill:url(#SVGID_00000038397171064896840300000014868048927343784835_);}
	.st6{fill:url(#SVGID_00000032623779697475773950000010450540712803144375_);}
	.st7{font-family:'Poppins-Black';}
	.st8{font-size:144.8298px;}
	.st9{font-family:'Montserrat-Medium';}
	.st10{font-size:80.6391px;}
	.st11{fill:url(#SVGID_00000000187849540286539520000009125833271475088037_);}
	.st12{fill:url(#SVGID_00000121996293640624731190000002459064343955242929_);}
	.st13{fill:url(#SVGID_00000095300667279307636940000008782875474378237323_);}
	.st14{fill:url(#SVGID_00000140703780172602211580000012665814024630650778_);}
	.st15{fill:url(#SVGID_00000046330229678942121160000011535042056635757734_);}
	.st16{fill:url(#SVGID_00000016033788028163760780000000833124551241349293_);}
	.st17{fill:url(#SVGID_00000072995912526817593640000012211917623556268933_);}
	.st18{fill:url(#SVGID_00000032610523113831286380000007785416005147998366_);}
</style>
<g>
	<g>
		<rect x="542.99" y="41.97" class="st2" width="102.39" height="471.68"/>
		<rect x="302.56" y="156.47" class="st2" width="68.91" height="357.19"/>
		<linearGradient id="SVGID_1_" gradientUnits="userSpaceOnUse" x1="417.1647" y1="160.3247" x2="417.1647" y2="642.3146">
			<stop  offset="0" style="stop-color:#00A86B"/>
			<stop  offset="1" style="stop-color:#0A2540"/>
		</linearGradient>
		<polygon class="st3" points="451.63,269.72 451.63,513.66 382.7,513.66 382.7,172.29 405.68,204.77 		"/>
		
			<linearGradient id="SVGID_00000178198022977084065850000003747560369381078411_" gradientUnits="userSpaceOnUse" x1="497.3093" y1="160.3247" x2="497.3093" y2="642.3146">
			<stop  offset="0" style="stop-color:#00A86B"/>
			<stop  offset="1" style="stop-color:#0A2540"/>
		</linearGradient>
		<polygon style="fill:url(#SVGID_00000178198022977084065850000003747560369381078411_);" points="531.77,382.95 531.77,513.66 
			462.85,513.66 462.85,285.56 		"/>
		<path class="st1" d="M700.51,168.23c87.78,26.8,29.54,123.08-15.01,163.72c-61.46,57.44-138.56,92.79-214.98,124.9
			c-89.45,36.8-186.93,68.35-284.92,52.91c-49.16-7.22-109.28-29.86-120.41-84.25c22.99,45.57,76.93,55.04,123.09,56.01
			c56.41,1.5,112.3-11.36,165.58-29.13c33.63-11.16,66.36-24.21,99.17-37.85c91.02-39.66,206.3-79.92,263.36-162.48
			C739.39,217.78,736.81,191.28,700.51,168.23L700.51,168.23z"/>
		<g>
			<path class="st2" d="M399.3,162.71l12.94,18.28c5.15-12.86,10.34-25.8,15.53-38.74c-6.11-1.22-11.53-2.29-17.9-3.55
				C406.36,146.68,402.82,154.69,399.3,162.71z"/>
			<path class="st2" d="M145.74,107.98C65.05,179.72,37.2,288,63.5,384.64c10.86,39.9,44.52,69.68,85.6,74.45
				c2.62,0.3,4.12,0.38,4.12,0.38c-11.53-14.01-21.18-29.08-28.7-44.8c14.73,17.86,30.84,33.62,48.47,47.06
				c5,0.38,10.27,0.61,15.69,0.73c4.28,0.11,8.4,0.14,12.48,0.09c0-0.01,0,0,0-0.01c-45.99-32.97-78.96-78.39-99.99-135.25
				c-0.57-1.53-0.69-3.55-0.19-5.08c9.96-30.84,22.94-60.34,40.07-87.97c0.23-0.34,0.57-0.61,1.3-1.45
				c25.8,74.53,72.86,129.07,141.13,164.14v-20.46c-1.14-0.65-2.25-1.34-3.36-2.06c-28.24-18.05-52.32-40.64-72.66-67.28
				c-2.9-3.78-3.24-6.45-0.73-10.76c16.37-27.97,35.72-53.77,57.48-77.74c0.69-0.76,1.3-1.56,2.14-2.56
				c-3.55-4.73-7.06-9.35-10.88-14.35c-23.62,26.64-43.66,55.26-60.34,87.51c-3.7-6.41-7.14-11.98-10.19-17.75
				c-10.38-19.35-18.4-39.65-23.97-60.87c-0.46-1.72-0.31-4.35,0.69-5.65c19.88-25.38,43.13-47.21,69.88-65.3
				c0.34-0.23,0.76-0.34,1.64-0.73c11.6,32.21,28.36,59.84,50.3,82.78V172.4c-3.01,2.9-6.03,5.84-9.01,8.82
				c-3.7-6.6-7.4-12.4-10.27-18.62c-4.66-10.11-8.66-20.53-13.09-30.76c-1.18-2.82-0.73-4.24,2.14-5.84
				c28.51-15.99,58.7-27.59,90.26-35.84c1.37-0.38,2.75-0.84,4.35-1.3c-0.23-0.8-0.34-1.34-0.57-1.83
				c-4.69-9.81-5.19-10.04-15.53-7.14c-28.05,7.9-55.34,17.75-81.4,30.91c-1.3,0.65-2.67,1.18-4.35,1.91
				c-0.38-1.07-0.84-1.95-0.99-2.86c-1.53-8.97-2.94-17.98-4.5-26.94c-0.38-2.37,0.19-3.63,2.56-4.69
				c29.16-12.71,59.57-19.77,91.36-21.03c2.75-0.08,3.82,1.03,4.96,3.17c29.39,54.46,74.88,85.41,136.36,92.01
				c12.44,1.3,25.19-0.34,37.82-0.65c0.92-0.04,1.79-0.42,2.71-0.95c-40.76,1.76-77.93-8.62-111.06-32.52
				c-21.91-15.8-39-35.84-51.9-60.83c39.84,1.76,76.52,11.91,110.37,31.29c23.09,13.28,43.24,28.93,60.22,47.13v-13.85
				C422.55,17.65,255.58,10.32,145.74,107.98z M129.33,221.78c-16.93,28.56-26.29,59.98-31.07,92.82c-0.1-0.01,0.07,0-0.04,0
				c-2.71-47.9,7.98-92.66,32.36-135.48c1.03,6.3,1.3,11.56,2.82,16.41C136.43,205.14,134.52,213.04,129.33,221.78z M225.35,124.39
				c-19.08,11.95-37.1,25.3-53.16,41.14c-5.61,5.53-10.92,11.41-17.1,17.9c-0.46-3.17-0.95-5.65-1.22-8.17
				c-0.69-6.56-1.03-13.17-1.98-19.69c-0.73-4.92,0.76-8.59,4.01-12.29c18.24-20.8,39-38.51,62.93-52.48
				c0.99-0.57,2.02-1.03,3.02-1.53c2.1,10.8,4.24,21.26,6.03,31.79C228.06,122.02,226.5,123.7,225.35,124.39z"/>
			<path class="st2" d="M323.24,137.37h34.73c1.87-1.37,3.74-2.71,5.65-3.97c3.45-2.39,6.92-4.72,10.41-7.04
				c1.66-1.14,3.35-2.23,5.04-3.34c-5.61-5.08-10.91-9.81-16.6-14.92C349.04,117.33,335.95,127.06,323.24,137.37z"/>
			<path class="st2" d="M162.24,418.5c5.19-28.83,13.64-56.63,25.03-83.56c0.38-0.9,0.37-2.43-0.16-3.18
				c-1.96-2.78-4.21-5.35-6.8-8.56C168.69,354.53,162.34,385.91,162.24,418.5z"/>
		</g>
	</g>
	<g>
		<text transform="matrix(1 0 0 1 53.498 661.7443)" class="st7 st8">NUMERIQ</text>
		<g>
			<text transform="matrix(1 0 0 1 53.498 661.7443)" class="st2 st7 st8">NUMERIQ</text>
		</g>
	</g>
	<g>
		<text transform="matrix(1 0 0 1 167.3965 753.7716)" class="st9 st10">G L O B A L</text>
		<g>
			<text transform="matrix(1 0 0 1 167.3965 753.7716)" class="st2 st9 st10">G L O B A L</text>
		</g>
	</g>
</g>
</svg>
