<?xml version="1.0" encoding="utf-8"?>
<!-- Generator: Adobe Illustrator 28.2.0, SVG Export Plug-In . SVG Version: 6.00 Build 0)  -->
<svg version="1.1" id="Layer_1" xmlns="http://www.w3.org/2000/svg" xmlns:xlink="http://www.w3.org/1999/xlink" x="0px" y="0px"
	 viewBox="0 0 800 800" style="enable-background:new 0 0 800 800;" xml:space="preserve">
<style type="text/css">
	.st0{fill:#0A2540;}
	.st1{fill:#00A86B;}
	.st2{fill:#FFFFFF;}
	.st3{fill:url(#SVGID_1_);}
	.st4{fill:url(#SVGID_00000139264473643435410340000001517232101623793592_);}
	.st5{fill:url(#SVGID_00000153679681618418586790000004054109319257379478_);}
	.st6{fill:url(#SVGID_00000048495658355585348220000012345712630140130984_);}
	.st7{fill:url(#SVGID_00000156565975136976512580000008817815963788371079_);}
	.st8{fill:url(#SVGID_00000112616951156099035190000002721402731597303947_);}
	.st9{fill:url(#SVGID_00000072243108898349811970000010372555868309813402_);}
	.st10{fill:url(#SVGID_00000016070753777876442190000000561307782991133845_);}
	.st11{fill:url(#SVGID_00000116931252274167339750000002342612913579645842_);}
	.st12{fill:url(#SVGID_00000111181145801439656120000003422174083842484904_);}
	.st13{fill:url(#SVGID_00000163060923013398469770000003473549758052069793_);}
	.st14{fill:url(#SVGID_00000048468801060812667070000005346956129528691092_);}
</style>
<rect x="548.39" y="25.2" class="st2" width="106.25" height="489.47"/>
<rect x="298.89" y="144.02" class="st2" width="71.51" height="370.66"/>
<linearGradient id="SVGID_1_" gradientUnits="userSpaceOnUse" x1="417.8142" y1="148.0195" x2="417.8142" y2="648.1923">
	<stop  offset="0" style="stop-color:#00A86B"/>
	<stop  offset="1" style="stop-color:#0A2540"/>
</linearGradient>
<polygon class="st3" points="453.58,261.54 453.58,514.69 382.05,514.69 382.05,160.43 405.89,194.14 "/>
<linearGradient id="SVGID_00000144302086963301430350000006492528640687519930_" gradientUnits="userSpaceOnUse" x1="500.9821" y1="148.0195" x2="500.9821" y2="648.1923">
	<stop  offset="0" style="stop-color:#00A86B"/>
	<stop  offset="1" style="stop-color:#0A2540"/>
</linearGradient>
<polygon style="fill:url(#SVGID_00000144302086963301430350000006492528640687519930_);" points="536.74,379.05 536.74,514.69 
	465.22,514.69 465.22,277.98 "/>
<path class="st1" d="M711.85,156.22c91.09,27.82,30.65,127.73-15.58,169.9c-63.78,59.6-143.79,96.29-223.09,129.61
	c-92.83,38.19-193.98,70.93-295.67,54.9c-51.01-7.49-113.4-30.99-124.95-87.43c23.86,47.29,79.83,57.12,127.73,58.13
	c58.54,1.56,116.54-11.78,171.82-30.23c34.89-11.58,68.87-25.13,102.91-39.28c94.46-41.15,214.08-82.94,273.29-168.61
	C752.2,207.65,749.52,180.14,711.85,156.22L711.85,156.22z"/>
<g>
	<path class="st2" d="M399.28,150.49l13.43,18.97c5.35-13.35,10.73-26.77,16.12-40.2c-6.34-1.27-11.96-2.38-18.57-3.68
		C406.61,133.86,402.92,142.17,399.28,150.49z"/>
	<path class="st2" d="M136.15,93.7C52.42,168.15,23.51,280.51,50.81,380.8c11.27,41.41,46.2,72.31,88.83,77.25
		c2.71,0.31,4.27,0.4,4.27,0.4c-11.96-14.53-21.98-30.18-29.78-46.49c15.29,18.53,32,34.89,50.3,48.83
		c5.19,0.4,10.65,0.63,16.28,0.75c4.44,0.12,8.72,0.15,12.95,0.09c0-0.01,0,0,0-0.01c-47.72-34.22-81.94-81.35-103.76-140.36
		c-0.59-1.58-0.71-3.68-0.2-5.27c10.34-32,23.8-62.61,41.58-91.29c0.24-0.36,0.59-0.63,1.35-1.5
		c26.77,77.35,75.6,133.94,146.45,170.34v-21.23c-1.19-0.67-2.34-1.39-3.49-2.14c-29.31-18.73-54.3-42.18-75.41-69.82
		c-3.01-3.92-3.37-6.69-0.75-11.17c16.99-29.03,37.07-55.8,59.64-80.67c0.71-0.79,1.35-1.62,2.22-2.65
		c-3.68-4.91-7.33-9.7-11.29-14.89c-24.51,27.64-45.31,57.35-62.61,90.81c-3.84-6.65-7.41-12.44-10.57-18.42
		c-10.77-20.08-19.09-41.15-24.87-63.17c-0.48-1.78-0.32-4.51,0.71-5.86c20.63-26.34,44.75-48.99,72.51-67.76
		c0.36-0.24,0.79-0.36,1.7-0.75c12.04,33.43,29.43,62.1,52.2,85.9v-51.17c-3.13,3.01-6.26,6.06-9.35,9.15
		c-3.84-6.85-7.68-12.87-10.65-19.33c-4.83-10.5-8.99-21.31-13.58-31.92c-1.23-2.93-0.75-4.4,2.22-6.06
		c29.58-16.59,60.91-28.63,93.66-37.19c1.43-0.4,2.85-0.87,4.51-1.35c-0.24-0.83-0.36-1.39-0.59-1.9
		c-4.87-10.18-5.39-10.42-16.12-7.41c-29.11,8.2-57.43,18.42-84.47,32.08c-1.35,0.67-2.77,1.23-4.51,1.98
		c-0.4-1.11-0.87-2.02-1.03-2.97c-1.58-9.31-3.05-18.65-4.67-27.96c-0.4-2.46,0.2-3.76,2.65-4.87
		c30.26-13.19,61.82-20.51,94.81-21.82c2.85-0.08,3.96,1.07,5.15,3.29c30.49,56.51,77.7,88.63,141.5,95.48
		c12.91,1.35,26.14-0.36,39.25-0.67c0.95-0.04,1.86-0.44,2.81-0.99c-42.3,1.82-80.87-8.95-115.25-33.74
		c-22.73-16.4-40.48-37.19-53.86-63.13c41.35,1.82,79.41,12.36,114.53,32.48c23.96,13.78,44.87,30.02,62.49,48.91v-14.38
		C423.4-0.04,250.13-7.65,136.15,93.7z M119.12,211.8c-17.57,29.64-27.28,62.25-32.24,96.32c-0.11-0.01,0.07,0-0.04,0
		c-2.81-49.7,8.28-96.16,33.58-140.59c1.07,6.53,1.35,12,2.93,17.03C126.49,194.53,124.51,202.73,119.12,211.8z M218.77,110.73
		c-19.8,12.4-38.49,26.26-55.17,42.69c-5.82,5.74-11.33,11.84-17.74,18.57c-0.48-3.29-0.99-5.86-1.27-8.48
		c-0.71-6.81-1.07-13.66-2.06-20.44c-0.75-5.11,0.79-8.91,4.16-12.75c18.93-21.58,40.48-39.96,65.31-54.46
		c1.03-0.59,2.1-1.07,3.13-1.58c2.18,11.21,4.4,22.06,6.26,32.99C221.58,108.27,219.95,110.02,218.77,110.73z"/>
	<path class="st2" d="M320.35,124.19h36.04c1.94-1.43,3.88-2.81,5.86-4.12c3.58-2.48,7.18-4.9,10.81-7.31
		c1.72-1.19,3.48-2.31,5.23-3.47c-5.82-5.27-11.33-10.18-17.23-15.49C347.12,103.4,333.54,113.5,320.35,124.19z"/>
	<path class="st2" d="M153.27,415.93c5.39-29.92,14.16-58.77,25.98-86.72c0.4-0.94,0.38-2.53-0.17-3.3
		c-2.03-2.88-4.37-5.55-7.06-8.88C159.97,349.55,153.38,382.12,153.27,415.93z"/>
</g>
<g>
	<g>
		<path class="st2" d="M149.99,668.35h-33.37l-35.32-53.5v53.5H47.94V561.95h33.37l35.32,54.41v-54.41h33.37V668.35z"/>
		<path class="st2" d="M197.63,561.95v59.97c0,4.91,1.08,8.79,3.23,11.65c2.15,2.86,5.64,4.28,10.45,4.28
			c4.81,0,8.36-1.43,10.67-4.28c2.3-2.86,3.46-6.74,3.46-11.65v-59.97h33.21v59.97c0,10.12-2.1,18.76-6.31,25.93
			c-4.21,7.16-9.97,12.55-17.28,16.16c-7.31,3.61-15.48,5.41-24.5,5.41s-17.01-1.8-23.97-5.41c-6.96-3.61-12.4-8.97-16.31-16.08
			c-3.91-7.11-5.86-15.78-5.86-26v-59.97H197.63z"/>
		<path class="st2" d="M400.98,561.95v106.41h-33.21V615.3l-16.38,53.05h-28.56l-16.38-53.05v53.05h-33.37V561.95h40.88l23.45,63.88
			l22.84-63.88H400.98z"/>
		<path class="st2" d="M449.37,588.4v13.23h33.06v25.1h-33.06v15.03h37.57v26.6H416V561.95h70.94v26.45H449.37z"/>
		<path class="st2" d="M553.07,668.35l-19.99-38.17h-0.15v38.17h-33.37V561.95h49.6c8.62,0,15.98,1.53,22.09,4.58
			c6.11,3.06,10.69,7.21,13.75,12.47c3.06,5.26,4.58,11.2,4.58,17.81c0,7.12-1.98,13.43-5.94,18.94
			c-3.96,5.51-9.64,9.47-17.06,11.87l23.14,40.73H553.07z M532.93,607.94h13.23c3.21,0,5.61-0.73,7.21-2.18
			c1.6-1.45,2.41-3.73,2.41-6.84c0-2.8-0.83-5.01-2.48-6.61c-1.65-1.6-4.03-2.4-7.14-2.4h-13.23V607.94z"/>
		<path class="st2" d="M633.63,561.95v106.41h-33.37V561.95H633.63z"/>
		<path class="st2" d="M718.69,685.64l-10.22-16.83c-2.31,0.4-4.96,0.6-7.96,0.6c-10.02,0-19.21-2.35-27.58-7.06
			c-8.37-4.71-15.01-11.22-19.91-19.54c-4.91-8.32-7.36-17.68-7.36-28.1c0-10.42,2.45-19.79,7.36-28.11
			c4.91-8.32,11.55-14.8,19.91-19.46c8.36-4.66,17.56-6.99,27.58-6.99c10.02,0,19.19,2.33,27.5,6.99
			c8.32,4.66,14.9,11.15,19.76,19.46c4.86,8.32,7.29,17.69,7.29,28.11c0,8.52-1.65,16.36-4.96,23.52
			c-3.31,7.17-7.87,13.25-13.68,18.26l21.64,29.16H718.69z M685.03,631.91c3.61,4.26,8.77,6.39,15.48,6.39
			c6.61,0,11.72-2.13,15.33-6.39c3.61-4.26,5.41-9.99,5.41-17.21c0-7.31-1.8-13.1-5.41-17.36c-3.61-4.26-8.72-6.39-15.33-6.39
			c-6.71,0-11.87,2.13-15.48,6.39c-3.61,4.26-5.41,10.05-5.41,17.36C679.62,621.91,681.42,627.65,685.03,631.91z"/>
	</g>
	<g>
		<g>
			<path class="st2" d="M149.99,668.35h-33.37l-35.32-53.5v53.5H47.94V561.95h33.37l35.32,54.41v-54.41h33.37V668.35z"/>
			<path class="st2" d="M197.63,561.95v59.97c0,4.91,1.08,8.79,3.23,11.65c2.15,2.86,5.64,4.28,10.45,4.28
				c4.81,0,8.36-1.43,10.67-4.28c2.3-2.86,3.46-6.74,3.46-11.65v-59.97h33.21v59.97c0,10.12-2.1,18.76-6.31,25.93
				c-4.21,7.16-9.97,12.55-17.28,16.16c-7.31,3.61-15.48,5.41-24.5,5.41s-17.01-1.8-23.97-5.41c-6.96-3.61-12.4-8.97-16.31-16.08
				c-3.91-7.11-5.86-15.78-5.86-26v-59.97H197.63z"/>
			<path class="st2" d="M400.98,561.95v106.41h-33.21V615.3l-16.38,53.05h-28.56l-16.38-53.05v53.05h-33.37V561.95h40.88
				l23.45,63.88l22.84-63.88H400.98z"/>
			<path class="st2" d="M449.37,588.4v13.23h33.06v25.1h-33.06v15.03h37.57v26.6H416V561.95h70.94v26.45H449.37z"/>
			<path class="st2" d="M553.07,668.35l-19.99-38.17h-0.15v38.17h-33.37V561.95h49.6c8.62,0,15.98,1.53,22.09,4.58
				c6.11,3.06,10.69,7.21,13.75,12.47c3.06,5.26,4.58,11.2,4.58,17.81c0,7.12-1.98,13.43-5.94,18.94
				c-3.96,5.51-9.64,9.47-17.06,11.87l23.14,40.73H553.07z M532.93,607.94h13.23c3.21,0,5.61-0.73,7.21-2.18
				c1.6-1.45,2.41-3.73,2.41-6.84c0-2.8-0.83-5.01-2.48-6.61c-1.65-1.6-4.03-2.4-7.14-2.4h-13.23V607.94z"/>
			<path class="st2" d="M633.63,561.95v106.41h-33.37V561.95H633.63z"/>
			<path class="st2" d="M718.69,685.64l-10.22-16.83c-2.31,0.4-4.96,0.6-7.96,0.6c-10.02,0-19.21-2.35-27.58-7.06
				c-8.37-4.71-15.01-11.22-19.91-19.54c-4.91-8.32-7.36-17.68-7.36-28.1c0-10.42,2.45-19.79,7.36-28.11
				c4.91-8.32,11.55-14.8,19.91-19.46c8.36-4.66,17.56-6.99,27.58-6.99c10.02,0,19.19,2.33,27.5,6.99
				c8.32,4.66,14.9,11.15,19.76,19.46c4.86,8.32,7.29,17.69,7.29,28.11c0,8.52-1.65,16.36-4.96,23.52
				c-3.31,7.17-7.87,13.25-13.68,18.26l21.64,29.16H718.69z M685.03,631.91c3.61,4.26,8.77,6.39,15.48,6.39
				c6.61,0,11.72-2.13,15.33-6.39c3.61-4.26,5.41-9.99,5.41-17.21c0-7.31-1.8-13.1-5.41-17.36c-3.61-4.26-8.72-6.39-15.33-6.39
				c-6.71,0-11.87,2.13-15.48,6.39c-3.61,4.26-5.41,10.05-5.41,17.36C679.62,621.91,681.42,627.65,685.03,631.91z"/>
		</g>
	</g>
</g>
<g>
	<g>
		<path class="st2" d="M208,734.23h8.03v22.84c-2.9,2.4-6.28,4.24-10.13,5.52c-3.85,1.28-7.87,1.92-12.05,1.92
			c-5.91,0-11.24-1.3-15.98-3.89c-4.74-2.59-8.47-6.16-11.17-10.71c-2.71-4.55-4.06-9.67-4.06-15.36s1.35-10.82,4.06-15.4
			c2.71-4.57,6.44-8.14,11.21-10.71c4.77-2.57,10.14-3.85,16.11-3.85c4.69,0,8.94,0.77,12.76,2.3c3.82,1.54,7.07,3.78,9.75,6.74
			l-5.19,5.19c-4.69-4.52-10.35-6.78-16.99-6.78c-4.46,0-8.47,0.96-12.01,2.89c-3.54,1.92-6.32,4.6-8.33,8.03
			c-2.01,3.43-3.01,7.29-3.01,11.59c0,4.24,1,8.08,3.01,11.51s4.78,6.12,8.33,8.08c3.54,1.95,7.52,2.93,11.92,2.93
			c5.24,0,9.82-1.25,13.72-3.77V734.23z"/>
		<path class="st2" d="M254.52,705.28h8.37v51.3h31.71v7.28h-40.08V705.28z"/>
		<path class="st2" d="M337.2,760.63c-4.74-2.59-8.47-6.18-11.17-10.75c-2.71-4.57-4.06-9.68-4.06-15.31s1.35-10.74,4.06-15.31
			c2.71-4.57,6.43-8.16,11.17-10.75c4.74-2.59,10.07-3.89,15.98-3.89c5.86,0,11.16,1.3,15.9,3.89c4.74,2.59,8.45,6.17,11.13,10.71
			s4.02,9.67,4.02,15.36s-1.34,10.81-4.02,15.36s-6.39,8.12-11.13,10.71c-4.74,2.59-10.04,3.89-15.9,3.89
			C347.27,764.52,341.94,763.23,337.2,760.63z M364.77,754.15c3.43-1.95,6.14-4.64,8.12-8.08c1.98-3.43,2.97-7.27,2.97-11.51
			c0-4.24-0.99-8.08-2.97-11.51c-1.98-3.43-4.69-6.12-8.12-8.08c-3.43-1.95-7.29-2.93-11.59-2.93c-4.3,0-8.19,0.98-11.67,2.93
			c-3.49,1.95-6.22,4.64-8.2,8.08c-1.98,3.43-2.97,7.27-2.97,11.51c0,4.24,0.99,8.08,2.97,11.51c1.98,3.43,4.71,6.12,8.2,8.08
			c3.49,1.95,7.38,2.93,11.67,2.93C357.48,757.08,361.34,756.1,364.77,754.15z"/>
		<path class="st2" d="M466.99,738.62c1.95,2.48,2.93,5.62,2.93,9.41c0,5.08-1.91,8.98-5.73,11.71c-3.82,2.73-9.39,4.1-16.69,4.1
			h-27.95v-58.58h26.28c6.69,0,11.87,1.34,15.52,4.02c3.65,2.68,5.48,6.39,5.48,11.13c0,3.07-0.71,5.72-2.13,7.95
			s-3.33,3.93-5.73,5.1C462.36,734.43,465.03,736.14,466.99,738.62z M427.91,712.05v18.75h17.16c4.29,0,7.6-0.79,9.92-2.39
			c2.31-1.59,3.47-3.92,3.47-6.99c0-3.07-1.16-5.4-3.47-6.99c-2.32-1.59-5.62-2.38-9.92-2.38H427.91z M457.87,754.73
			c2.4-1.56,3.6-4.02,3.6-7.36c0-6.53-4.77-9.79-14.31-9.79h-19.25v19.5h19.25C451.9,757.08,455.47,756.29,457.87,754.73z"/>
		<path class="st2" d="M542.72,749.21h-31.13l-6.44,14.64h-8.62l26.53-58.58h8.28l26.61,58.58h-8.79L542.72,749.21z M539.79,742.51
			l-12.64-28.7l-12.64,28.7H539.79z"/>
		<path class="st2" d="M589.16,705.28h8.37v51.3h31.72v7.28h-40.08V705.28z"/>
	</g>
	<g>
		<g>
			<path class="st2" d="M208,734.23h8.03v22.84c-2.9,2.4-6.28,4.24-10.13,5.52c-3.85,1.28-7.87,1.92-12.05,1.92
				c-5.91,0-11.24-1.3-15.98-3.89c-4.74-2.59-8.47-6.16-11.17-10.71c-2.71-4.55-4.06-9.67-4.06-15.36s1.35-10.82,4.06-15.4
				c2.71-4.57,6.44-8.14,11.21-10.71c4.77-2.57,10.14-3.85,16.11-3.85c4.69,0,8.94,0.77,12.76,2.3c3.82,1.54,7.07,3.78,9.75,6.74
				l-5.19,5.19c-4.69-4.52-10.35-6.78-16.99-6.78c-4.46,0-8.47,0.96-12.01,2.89c-3.54,1.92-6.32,4.6-8.33,8.03
				c-2.01,3.43-3.01,7.29-3.01,11.59c0,4.24,1,8.08,3.01,11.51s4.78,6.12,8.33,8.08c3.54,1.95,7.52,2.93,11.92,2.93
				c5.24,0,9.82-1.25,13.72-3.77V734.23z"/>
			<path class="st2" d="M254.52,705.28h8.37v51.3h31.71v7.28h-40.08V705.28z"/>
			<path class="st2" d="M337.2,760.63c-4.74-2.59-8.47-6.18-11.17-10.75c-2.71-4.57-4.06-9.68-4.06-15.31s1.35-10.74,4.06-15.31
				c2.71-4.57,6.43-8.16,11.17-10.75c4.74-2.59,10.07-3.89,15.98-3.89c5.86,0,11.16,1.3,15.9,3.89c4.74,2.59,8.45,6.17,11.13,10.71
				s4.02,9.67,4.02,15.36s-1.34,10.81-4.02,15.36s-6.39,8.12-11.13,10.71c-4.74,2.59-10.04,3.89-15.9,3.89
				C347.27,764.52,341.94,763.23,337.2,760.63z M364.77,754.15c3.43-1.95,6.14-4.64,8.12-8.08c1.98-3.43,2.97-7.27,2.97-11.51
				c0-4.24-0.99-8.08-2.97-11.51c-1.98-3.43-4.69-6.12-8.12-8.08c-3.43-1.95-7.29-2.93-11.59-2.93c-4.3,0-8.19,0.98-11.67,2.93
				c-3.49,1.95-6.22,4.64-8.2,8.08c-1.98,3.43-2.97,7.27-2.97,11.51c0,4.24,0.99,8.08,2.97,11.51c1.98,3.43,4.71,6.12,8.2,8.08
				c3.49,1.95,7.38,2.93,11.67,2.93C357.48,757.08,361.34,756.1,364.77,754.15z"/>
			<path class="st2" d="M466.99,738.62c1.95,2.48,2.93,5.62,2.93,9.41c0,5.08-1.91,8.98-5.73,11.71c-3.82,2.73-9.39,4.1-16.69,4.1
				h-27.95v-58.58h26.28c6.69,0,11.87,1.34,15.52,4.02c3.65,2.68,5.48,6.39,5.48,11.13c0,3.07-0.71,5.72-2.13,7.95
				s-3.33,3.93-5.73,5.1C462.36,734.43,465.03,736.14,466.99,738.62z M427.91,712.05v18.75h17.16c4.29,0,7.6-0.79,9.92-2.39
				c2.31-1.59,3.47-3.92,3.47-6.99c0-3.07-1.16-5.4-3.47-6.99c-2.32-1.59-5.62-2.38-9.92-2.38H427.91z M457.87,754.73
				c2.4-1.56,3.6-4.02,3.6-7.36c0-6.53-4.77-9.79-14.31-9.79h-19.25v19.5h19.25C451.9,757.08,455.47,756.29,457.87,754.73z"/>
			<path class="st2" d="M542.72,749.21h-31.13l-6.44,14.64h-8.62l26.53-58.58h8.28l26.61,58.58h-8.79L542.72,749.21z M539.79,742.51
				l-12.64-28.7l-12.64,28.7H539.79z"/>
			<path class="st2" d="M589.16,705.28h8.37v51.3h31.72v7.28h-40.08V705.28z"/>
		</g>
	</g>
</g>
</svg>
