<?xml version="1.0" encoding="utf-8"?>
<!-- Generator: Adobe Illustrator 28.2.0, SVG Export Plug-In . SVG Version: 6.00 Build 0)  -->
<svg version="1.1" id="Layer_1" xmlns="http://www.w3.org/2000/svg" xmlns:xlink="http://www.w3.org/1999/xlink" x="0px" y="0px"
	 viewBox="0 0 800 800" style="enable-background:new 0 0 800 800;" xml:space="preserve">
<style type="text/css">
	.st0{fill:#0A2540;}
	.st1{fill:#00A86B;}
	.st2{fill:#FFFFFF;}
	.st3{fill:url(#SVGID_1_);}
	.st4{fill:url(#SVGID_00000013896348238385865820000002373297327137846932_);}
	.st5{fill:url(#SVGID_00000111169698173995735700000009346558420499903893_);}
	.st6{fill:url(#SVGID_00000174604393531570152190000007395187755410642598_);}
	.st7{fill:url(#SVGID_00000081616417391255852410000016566457257874900412_);}
	.st8{fill:url(#SVGID_00000021091195183951717820000017634067596476229550_);}
	.st9{fill:url(#SVGID_00000076601048571324474900000007305500196288909215_);}
	.st10{fill:url(#SVGID_00000101083816330895028900000005993147218795788685_);}
	.st11{fill:url(#SVGID_00000092433684431022710310000002068020804644678307_);}
	.st12{fill:url(#SVGID_00000119834719807807072300000014164255099760579749_);}
	.st13{fill:url(#SVGID_00000042695072089392467210000010658124436138819225_);}
	.st14{fill:url(#SVGID_00000113355103407409860810000012284050684289290144_);}
	.st15{fill:url(#SVGID_00000183229361527908171820000011348409727331812009_);}
	.st16{fill:url(#SVGID_00000063621637267157349010000005945701307497129600_);}
</style>
<g>
	<rect x="554.82" y="146.19" class="st0" width="110.85" height="510.68"/>
	<rect x="294.51" y="270.15" class="st0" width="74.61" height="386.72"/>
	<linearGradient id="SVGID_1_" gradientUnits="userSpaceOnUse" x1="418.5901" y1="282.6262" x2="418.5901" y2="705.56">
		<stop  offset="0" style="stop-color:#00A86B"/>
		<stop  offset="1" style="stop-color:#0A2540"/>
	</linearGradient>
	<polygon class="st3" points="455.9,392.77 455.9,656.88 381.28,656.88 381.28,287.28 406.15,322.44 	"/>
	
		<linearGradient id="SVGID_00000088103154775893682310000014250192776916616348_" gradientUnits="userSpaceOnUse" x1="505.361" y1="282.6262" x2="505.361" y2="705.56">
		<stop  offset="0" style="stop-color:#00A86B"/>
		<stop  offset="1" style="stop-color:#0A2540"/>
	</linearGradient>
	<polygon style="fill:url(#SVGID_00000088103154775893682310000014250192776916616348_);" points="542.67,515.36 542.67,656.88 
		468.05,656.88 468.05,409.92 	"/>
	<path class="st1" d="M725.36,282.89c95.04,29.02,31.98,133.26-16.26,177.26c-66.54,62.19-150.02,100.46-232.75,135.23
		c-96.85,39.85-202.38,74.01-308.48,57.28c-53.22-7.82-118.31-32.33-130.36-91.22c24.89,49.34,83.29,59.59,133.26,60.64
		c61.07,1.63,121.59-12.3,179.27-31.53c36.41-12.09,71.85-26.22,107.37-40.98c98.55-42.93,223.36-86.53,285.13-175.92
		C767.46,336.54,764.67,307.84,725.36,282.89L725.36,282.89z"/>
	<g>
		
			<linearGradient id="SVGID_00000008867948104747110160000002458058907329249204_" gradientUnits="userSpaceOnUse" x1="414.6648" y1="296.1999" x2="414.6648" y2="251.7835">
			<stop  offset="0" style="stop-color:#00A86B"/>
			<stop  offset="1" style="stop-color:#0A2540"/>
		</linearGradient>
		<path style="fill:url(#SVGID_00000008867948104747110160000002458058907329249204_);" d="M399.25,276.91l14.01,19.79
			c5.58-13.92,11.2-27.93,16.82-41.94c-6.61-1.32-12.48-2.48-19.38-3.84C406.9,259.55,403.05,268.23,399.25,276.91z"/>
		
			<linearGradient id="SVGID_00000057832157252646854570000012416489312598438032_" gradientUnits="userSpaceOnUse" x1="279.7262" y1="596.5486" x2="279.7262" y2="151.6677">
			<stop  offset="0" style="stop-color:#00A86B"/>
			<stop  offset="1" style="stop-color:#0A2540"/>
		</linearGradient>
		<path style="fill:url(#SVGID_00000057832157252646854570000012416489312598438032_);" d="M124.73,217.66
			C37.36,295.33,7.21,412.56,35.69,517.19c11.76,43.2,48.2,75.44,92.68,80.6c2.83,0.33,4.46,0.41,4.46,0.41
			c-12.48-15.16-22.93-31.49-31.07-48.51c15.95,19.34,33.39,36.4,52.48,50.95c5.41,0.41,11.11,0.66,16.98,0.79
			c4.63,0.12,9.09,0.15,13.51,0.1c0-0.01,0,0,0-0.02c-49.79-35.7-85.49-84.87-108.26-146.44c-0.62-1.65-0.74-3.84-0.21-5.5
			c10.78-33.39,24.83-65.33,43.39-95.24c0.25-0.37,0.62-0.66,1.4-1.57c27.93,80.7,78.88,139.74,152.8,177.71v-22.15
			c-1.24-0.7-2.44-1.45-3.64-2.23c-30.58-19.54-56.65-44.01-78.67-72.85c-3.14-4.09-3.51-6.98-0.79-11.65
			c17.73-30.29,38.67-58.22,62.23-84.17c0.74-0.83,1.4-1.69,2.31-2.77c-3.84-5.12-7.64-10.12-11.78-15.54
			c-25.58,28.84-47.27,59.83-65.33,94.75c-4.01-6.94-7.73-12.97-11.03-19.21c-11.24-20.95-19.92-42.93-25.95-65.9
			c-0.5-1.86-0.33-4.71,0.74-6.12c21.53-27.48,46.69-51.11,75.66-70.7c0.37-0.25,0.83-0.37,1.78-0.79
			c12.56,34.87,30.7,64.79,54.46,89.62V287.4c-3.26,3.14-6.53,6.32-9.75,9.54c-4.01-7.15-8.02-13.43-11.11-20.16
			c-5.04-10.95-9.38-22.23-14.17-33.3c-1.28-3.06-0.79-4.59,2.31-6.32c30.87-17.31,63.55-29.87,97.72-38.8
			c1.49-0.41,2.98-0.91,4.71-1.4c-0.25-0.87-0.37-1.45-0.62-1.98c-5.08-10.62-5.62-10.87-16.82-7.73
			c-30.37,8.55-59.91,19.21-88.13,33.47c-1.4,0.7-2.89,1.28-4.71,2.07c-0.41-1.16-0.91-2.11-1.07-3.1
			c-1.65-9.71-3.18-19.46-4.88-29.17c-0.41-2.56,0.21-3.93,2.77-5.08c31.57-13.76,64.5-21.4,98.92-22.77
			c2.97-0.08,4.13,1.12,5.37,3.43c31.82,58.96,81.07,92.47,147.63,99.62c13.47,1.4,27.27-0.37,40.95-0.7
			c0.99-0.04,1.94-0.45,2.93-1.03c-44.13,1.9-84.37-9.34-120.24-35.2c-23.72-17.11-42.23-38.8-56.19-65.86
			c43.14,1.9,82.85,12.89,119.5,33.88c25,14.38,46.81,31.32,65.2,51.03v-15C424.42,119.85,243.64,111.92,124.73,217.66z
			 M106.96,340.87c-18.33,30.93-28.46,64.94-33.63,100.49c-0.11-0.01,0.07,0-0.04,0c-2.93-51.86,8.64-100.32,35.04-146.68
			c1.12,6.82,1.4,12.52,3.06,17.77C114.64,322.85,112.58,331.41,106.96,340.87z M210.92,235.42
			c-20.66,12.93-40.16,27.39-57.56,44.54c-6.07,5.99-11.82,12.35-18.51,19.38c-0.5-3.43-1.03-6.12-1.32-8.84
			c-0.74-7.11-1.12-14.26-2.15-21.32c-0.79-5.33,0.83-9.3,4.34-13.3c19.75-22.52,42.23-41.69,68.14-56.81
			c1.07-0.62,2.19-1.12,3.26-1.65c2.27,11.69,4.59,23.01,6.53,34.42C213.85,232.86,212.16,234.68,210.92,235.42z"/>
		
			<linearGradient id="SVGID_00000051363756780611222570000017975142232948396986_" gradientUnits="userSpaceOnUse" x1="347.1281" y1="249.1256" x2="347.1281" y2="218.3788">
			<stop  offset="0" style="stop-color:#00A86B"/>
			<stop  offset="1" style="stop-color:#0A2540"/>
		</linearGradient>
		<path style="fill:url(#SVGID_00000051363756780611222570000017975142232948396986_);" d="M316.9,249.47h37.6
			c2.02-1.49,4.05-2.93,6.12-4.3c3.73-2.58,7.49-5.11,11.28-7.62c1.8-1.24,3.63-2.41,5.46-3.62c-6.07-5.5-11.82-10.62-17.97-16.16
			C344.83,227.78,330.66,238.32,316.9,249.47z"/>
		
			<linearGradient id="SVGID_00000152222875086703030660000004711960024943884463_" gradientUnits="userSpaceOnUse" x1="156.2796" y1="552.7234" x2="156.2796" y2="452.6183">
			<stop  offset="0" style="stop-color:#00A86B"/>
			<stop  offset="1" style="stop-color:#0A2540"/>
		</linearGradient>
		<path style="fill:url(#SVGID_00000152222875086703030660000004711960024943884463_);" d="M142.59,553.85
			c5.62-31.21,14.77-61.31,27.1-90.47c0.41-0.98,0.4-2.64-0.17-3.44c-2.12-3.01-4.56-5.79-7.36-9.26
			C149.58,484.59,142.7,518.57,142.59,553.85z"/>
	</g>
</g>
</svg>
