<?xml version="1.0" encoding="utf-8"?>
<!-- Generator: Adobe Illustrator 28.2.0, SVG Export Plug-In . SVG Version: 6.00 Build 0)  -->
<svg version="1.1" id="Layer_1" xmlns="http://www.w3.org/2000/svg" xmlns:xlink="http://www.w3.org/1999/xlink" x="0px" y="0px"
	 viewBox="0 0 800 571.62" style="enable-background:new 0 0 800 571.62;" xml:space="preserve">
<style type="text/css">
	.st0{fill:#0A2540;}
	.st1{fill:#00A86B;}
	.st2{fill:#FFFFFF;}
	.st3{fill:url(#SVGID_1_);}
	.st4{fill:url(#SVGID_00000139282109638463834210000005312281663302250940_);}
	.st5{fill:url(#SVGID_00000070809917258689528330000016478971289047741616_);}
	.st6{fill:url(#SVGID_00000101075090235625952390000004657999163553472693_);}
	.st7{fill:url(#SVGID_00000006677039056261588570000000606849406148433796_);}
	.st8{fill:url(#SVGID_00000124149434659944574870000017572368245056163752_);}
	.st9{fill:url(#SVGID_00000053537098418849554140000015761645953070446257_);}
	.st10{fill:url(#SVGID_00000029759474982858912510000010224232878104548761_);}
	.st11{fill:url(#SVGID_00000085970271735708153090000005472761772551646636_);}
	.st12{fill:url(#SVGID_00000051380349263221962860000014073471242425532047_);}
	.st13{fill:url(#SVGID_00000078034219053097764400000010278490233247577733_);}
	.st14{fill:url(#SVGID_00000100382931016899795990000000521877408668782518_);}
</style>
<g>
	<rect x="559.23" y="24.78" class="st0" width="114" height="525.2"/>
	<rect x="291.51" y="152.27" class="st0" width="76.73" height="397.72"/>
	<linearGradient id="SVGID_1_" gradientUnits="userSpaceOnUse" x1="419.1189" y1="165.0968" x2="419.1189" y2="600.0595">
		<stop  offset="0" style="stop-color:#00A86B"/>
		<stop  offset="1" style="stop-color:#0A2540"/>
	</linearGradient>
	<polygon class="st3" points="457.49,278.37 457.49,550 380.75,550 380.75,169.88 406.33,206.05 	"/>
	
		<linearGradient id="SVGID_00000180336880565736792520000000201236645494182828_" gradientUnits="userSpaceOnUse" x1="508.3577" y1="165.0968" x2="508.3577" y2="600.0595">
		<stop  offset="0" style="stop-color:#00A86B"/>
		<stop  offset="1" style="stop-color:#0A2540"/>
	</linearGradient>
	<polygon style="fill:url(#SVGID_00000180336880565736792520000000201236645494182828_);" points="546.73,404.45 546.73,550 
		469.98,550 469.98,296.01 	"/>
	<path class="st1" d="M734.62,165.37c97.74,29.85,32.89,137.05-16.72,182.3c-68.43,63.95-154.29,103.32-239.37,139.07
		c-99.61,40.98-208.14,76.11-317.25,58.91c-54.74-8.04-121.68-33.25-134.07-93.81c25.6,50.74,85.66,61.29,137.05,62.37
		c62.81,1.68,125.05-12.65,184.37-32.43c37.44-12.43,73.89-26.96,110.42-42.15c101.35-44.16,229.71-88.99,293.24-180.92
		C777.91,220.54,775.04,191.03,734.62,165.37L734.62,165.37z"/>
	<g>
		
			<linearGradient id="SVGID_00000085228688441744243690000013711415672088382139_" gradientUnits="userSpaceOnUse" x1="415.0819" y1="179.0566" x2="415.0819" y2="133.3769">
			<stop  offset="0" style="stop-color:#00A86B"/>
			<stop  offset="1" style="stop-color:#0A2540"/>
		</linearGradient>
		<path style="fill:url(#SVGID_00000085228688441744243690000013711415672088382139_);" d="M399.23,159.22l14.41,20.36
			c5.74-14.32,11.52-28.73,17.3-43.13c-6.8-1.36-12.83-2.55-19.93-3.95C407.09,141.37,403.14,150.29,399.23,159.22z"/>
		
			<linearGradient id="SVGID_00000113337900060462248390000000968363329319034807_" gradientUnits="userSpaceOnUse" x1="276.3055" y1="487.9478" x2="276.3055" y2="30.4137">
			<stop  offset="0" style="stop-color:#00A86B"/>
			<stop  offset="1" style="stop-color:#0A2540"/>
		</linearGradient>
		<path style="fill:url(#SVGID_00000113337900060462248390000000968363329319034807_);" d="M116.9,98.28
			C27.05,178.16-3.97,298.72,25.33,406.34c12.09,44.43,49.57,77.59,95.31,82.89c2.91,0.34,4.59,0.42,4.59,0.42
			c-12.83-15.6-23.58-32.38-31.96-49.89c16.4,19.89,34.34,37.44,53.97,52.4c5.57,0.42,11.43,0.68,17.47,0.81
			c4.77,0.12,9.35,0.16,13.89,0.1c0-0.01,0,0,0-0.02c-51.21-36.72-87.92-87.28-111.34-150.6c-0.64-1.7-0.76-3.95-0.21-5.65
			c11.09-34.34,25.54-67.18,44.62-97.95c0.25-0.38,0.64-0.68,1.44-1.61c28.73,82.99,81.12,143.72,157.15,182.77v-22.78
			c-1.27-0.72-2.51-1.49-3.74-2.29c-31.45-20.1-58.26-45.26-80.91-74.92c-3.23-4.21-3.61-7.18-0.81-11.98
			c18.23-31.15,39.77-59.87,64-86.56c0.76-0.85,1.44-1.74,2.38-2.85c-3.95-5.27-7.86-10.41-12.11-15.98
			c-26.3,29.66-48.61,61.53-67.18,97.44c-4.12-7.14-7.95-13.34-11.35-19.76c-11.56-21.54-20.48-44.15-26.69-67.78
			c-0.51-1.91-0.34-4.84,0.76-6.29c22.14-28.26,48.02-52.57,77.81-72.71c0.38-0.25,0.85-0.38,1.83-0.81
			c12.92,35.87,31.57,66.63,56.01,92.17v-54.9c-3.36,3.23-6.71,6.5-10.03,9.82c-4.12-7.35-8.24-13.81-11.43-20.74
			c-5.18-11.26-9.65-22.86-14.58-34.25c-1.32-3.14-0.81-4.72,2.38-6.5c31.74-17.81,65.36-30.72,100.5-39.9
			c1.53-0.43,3.06-0.94,4.84-1.44c-0.25-0.89-0.38-1.49-0.64-2.04c-5.23-10.92-5.78-11.18-17.3-7.95
			c-31.23,8.8-61.62,19.76-90.64,34.42c-1.44,0.72-2.97,1.32-4.84,2.12c-0.42-1.19-0.93-2.17-1.1-3.19c-1.7-9.99-3.27-20.02-5.01-30
			c-0.42-2.63,0.21-4.04,2.85-5.23c32.47-14.15,66.33-22.01,101.73-23.41c3.06-0.09,4.25,1.15,5.52,3.53
			c32.72,60.64,83.37,95.1,151.83,102.45c13.85,1.44,28.05-0.38,42.11-0.72c1.02-0.04,2-0.47,3.02-1.06
			c-45.38,1.95-86.77-9.6-123.66-36.21c-24.39-17.59-43.43-39.9-57.79-67.74c44.36,1.95,85.2,13.26,122.89,34.85
			c25.71,14.79,48.15,32.21,67.06,52.48v-15.43C425.11-2.31,239.2-10.47,116.9,98.28z M98.62,225
			c-18.85,31.81-29.27,66.79-34.59,103.35c-0.12-0.01,0.07,0-0.04,0c-3.02-53.33,8.88-103.18,36.04-150.85
			c1.15,7.01,1.44,12.88,3.14,18.27C106.53,206.47,104.4,215.27,98.62,225z M205.54,116.55c-21.25,13.3-41.3,28.17-59.2,45.81
			c-6.25,6.16-12.15,12.71-19.04,19.93c-0.51-3.53-1.06-6.29-1.36-9.09c-0.77-7.31-1.15-14.66-2.21-21.93
			c-0.81-5.48,0.85-9.56,4.46-13.68c20.31-23.16,43.43-42.88,70.07-58.43c1.1-0.64,2.25-1.15,3.36-1.7
			c2.34,12.03,4.72,23.67,6.71,35.4C208.56,113.92,206.82,115.79,205.54,116.55z"/>
		
			<linearGradient id="SVGID_00000145048665636718829950000017923706967409589944_" gradientUnits="userSpaceOnUse" x1="345.6243" y1="130.6434" x2="345.6243" y2="99.0221">
			<stop  offset="0" style="stop-color:#00A86B"/>
			<stop  offset="1" style="stop-color:#0A2540"/>
		</linearGradient>
		<path style="fill:url(#SVGID_00000145048665636718829950000017923706967409589944_);" d="M314.54,131h38.67
			c2.08-1.53,4.16-3.02,6.29-4.42c3.84-2.66,7.71-5.26,11.6-7.84c1.85-1.27,3.73-2.48,5.61-3.72c-6.25-5.65-12.15-10.92-18.49-16.62
			C343.27,108.69,328.69,119.53,314.54,131z"/>
		
			<linearGradient id="SVGID_00000113313455336697035550000007491364404794014390_" gradientUnits="userSpaceOnUse" x1="149.3477" y1="442.876" x2="149.3477" y2="339.9238">
			<stop  offset="0" style="stop-color:#00A86B"/>
			<stop  offset="1" style="stop-color:#0A2540"/>
		</linearGradient>
		<path style="fill:url(#SVGID_00000113313455336697035550000007491364404794014390_);" d="M135.26,444.03
			c5.78-32.1,15.19-63.06,27.87-93.05c0.43-1.01,0.41-2.71-0.18-3.54c-2.18-3.09-4.69-5.96-7.57-9.53
			C142.45,372.81,135.38,407.75,135.26,444.03z"/>
	</g>
</g>
</svg>
