<?xml version="1.0" encoding="utf-8"?>
<!-- Generator: Adobe Illustrator 28.2.0, SVG Export Plug-In . SVG Version: 6.00 Build 0)  -->
<svg version="1.1" id="Layer_1" xmlns="http://www.w3.org/2000/svg" xmlns:xlink="http://www.w3.org/1999/xlink" x="0px" y="0px"
	 viewBox="0 0 800 568.87" style="enable-background:new 0 0 800 568.87;" xml:space="preserve">
<style type="text/css">
	.st0{fill:#0A2540;}
	.st1{fill:#00A86B;}
	.st2{fill:#FFFFFF;}
	.st3{fill:url(#SVGID_1_);}
	.st4{fill:url(#SVGID_00000170260604233388081740000001996477540485675170_);}
	.st5{fill:url(#SVGID_00000179603557925000788660000003673184291392843955_);}
	.st6{fill:url(#SVGID_00000117639841344445067590000004455772294061738161_);}
	.st7{fill:url(#SVGID_00000046329753215297062700000006791483304661684394_);}
	.st8{fill:url(#SVGID_00000001653801637841908600000002057086202678441371_);}
</style>
<g>
	<rect x="554.44" y="31.25" class="st2" width="110.58" height="509.43"/>
	<rect x="294.77" y="154.9" class="st2" width="74.43" height="385.77"/>
	<polygon class="st2" points="455.76,277.22 455.76,540.69 381.32,540.69 381.32,171.99 406.14,207.07 	"/>
	<polygon class="st2" points="542.32,399.51 542.32,540.69 467.88,540.69 467.88,294.33 	"/>
	<path class="st1" d="M724.57,167.61c94.81,28.95,31.9,132.93-16.22,176.82c-66.38,62.03-149.65,100.22-232.18,134.9
		c-96.61,39.75-201.89,73.82-307.73,57.14c-53.09-7.8-118.03-32.25-130.04-90.99c24.83,49.22,83.09,59.45,132.94,60.5
		c60.92,1.62,121.29-12.27,178.83-31.46c36.32-12.06,71.68-26.15,107.1-40.88c98.31-42.83,222.81-86.32,284.43-175.49
		C766.56,221.13,763.78,192.5,724.57,167.61L724.57,167.61z"/>
	<g>
		<path class="st1" d="M399.25,161.64l13.97,19.74c5.56-13.89,11.17-27.86,16.78-41.84c-6.59-1.32-12.45-2.47-19.33-3.83
			C406.88,144.33,403.05,152.99,399.25,161.64z"/>
		<path class="st1" d="M125.4,102.54C38.25,180.02,8.17,296.96,36.58,401.34c11.73,43.1,48.09,75.26,92.45,80.4
			c2.82,0.33,4.45,0.41,4.45,0.41c-12.45-15.13-22.88-31.41-31-48.39c15.91,19.29,33.3,36.31,52.35,50.82
			c5.4,0.41,11.09,0.66,16.94,0.78c4.62,0.12,9.07,0.15,13.47,0.1c0-0.01,0,0,0-0.02c-49.67-35.61-85.28-84.66-107.99-146.08
			c-0.62-1.65-0.74-3.83-0.21-5.48c10.76-33.3,24.77-65.17,43.28-95.01c0.25-0.37,0.62-0.66,1.4-1.57
			c27.86,80.5,78.69,139.4,152.43,177.28v-22.09c-1.24-0.7-2.43-1.44-3.63-2.23c-30.5-19.5-56.51-43.9-78.48-72.67
			c-3.13-4.08-3.5-6.97-0.78-11.62c17.68-30.21,38.58-58.08,62.07-83.96c0.74-0.82,1.4-1.69,2.31-2.76
			c-3.83-5.11-7.63-10.1-11.75-15.5c-25.51,28.77-47.15,59.68-65.17,94.51c-4-6.92-7.71-12.94-11.01-19.17
			c-11.21-20.9-19.87-42.83-25.88-65.74c-0.49-1.85-0.33-4.7,0.74-6.1c21.47-27.41,46.58-50.99,75.47-70.52
			c0.37-0.25,0.82-0.37,1.77-0.78c12.53,34.79,30.63,64.63,54.33,89.4v-53.25c-3.26,3.13-6.51,6.31-9.73,9.52
			c-4-7.13-8-13.4-11.09-20.11c-5.03-10.92-9.36-22.18-14.14-33.22c-1.28-3.05-0.78-4.58,2.31-6.31
			c30.79-17.27,63.39-29.8,97.48-38.7c1.48-0.41,2.97-0.91,4.7-1.4c-0.25-0.87-0.37-1.44-0.62-1.98
			c-5.07-10.59-5.61-10.84-16.78-7.71c-30.3,8.53-59.77,19.17-87.92,33.39c-1.4,0.7-2.89,1.28-4.7,2.06
			c-0.41-1.15-0.91-2.1-1.07-3.09c-1.65-9.69-3.17-19.41-4.86-29.1c-0.41-2.56,0.21-3.92,2.76-5.07
			c31.49-13.73,64.34-21.35,98.68-22.71c2.97-0.08,4.12,1.11,5.36,3.42c31.74,58.82,80.87,92.25,147.27,99.38
			c13.44,1.4,27.2-0.37,40.85-0.7c0.99-0.04,1.94-0.45,2.93-1.03c-44.02,1.9-84.17-9.32-119.95-35.12
			c-23.66-17.06-42.13-38.7-56.06-65.7c43.03,1.9,82.64,12.86,119.2,33.8c24.94,14.34,46.7,31.24,65.04,50.9v-14.96
			C424.36,4.97,244.03-2.94,125.4,102.54z M107.68,225.45c-18.28,30.85-28.39,64.79-33.55,100.24c-0.11-0.01,0.07,0-0.04,0
			c-2.93-51.73,8.61-100.08,34.95-146.32c1.11,6.8,1.4,12.49,3.05,17.72C115.34,207.48,113.28,216.01,107.68,225.45z M211.38,120.26
			c-20.61,12.9-40.06,27.33-57.42,44.43c-6.06,5.98-11.79,12.32-18.47,19.33c-0.49-3.42-1.03-6.1-1.32-8.82
			c-0.74-7.09-1.11-14.22-2.14-21.27c-0.78-5.32,0.82-9.27,4.33-13.27c19.7-22.46,42.13-41.59,67.97-56.68
			c1.07-0.62,2.18-1.11,3.26-1.65c2.27,11.66,4.58,22.96,6.51,34.33C214.31,117.7,212.62,119.52,211.38,120.26z"/>
		<path class="st1" d="M317.11,134.27h37.51c2.02-1.48,4.04-2.93,6.1-4.29c3.72-2.58,7.47-5.1,11.25-7.6
			c1.79-1.24,3.62-2.4,5.45-3.61c-6.06-5.48-11.79-10.59-17.93-16.12C344.97,112.63,330.83,123.14,317.11,134.27z"/>
		<path class="st1" d="M143.22,437.91c5.61-31.13,14.73-61.16,27.04-90.25c0.41-0.98,0.4-2.63-0.17-3.44
			c-2.11-3-4.54-5.78-7.34-9.24C150.19,368.82,143.33,402.71,143.22,437.91z"/>
	</g>
</g>
</svg>
